# xmcd
#
# Track frame offsets: 
#        150
#        17999
#        30715
#        55445
#        72576
#        87558
#        100802
#        116981
#        131677
#        145545
#        157022
#        179145
#
# Disc length: 2637 seconds
#
# Revision: 0
# Processed by: cddbd v1.5PL3 Copyright (c) Steve Scherf et al.
# Submitted via: ExactAudioCopy v0.95a3
#
DISCID=b80a4b0c
DTITLE=Bullseye - The Highway
DYEAR=2003
DGENRE=Country
TTITLE0=The Highway
TTITLE1=Me And His Mercedes
TTITLE2=The MAn In The Moon
TTITLE3=Fiddlin` Fool
TTITLE4=In Case You Haven`t Noticed
TTITLE5=Better Move It On Home
TTITLE6=Knock Yourself Out
TTITLE7=You Can`t Kiss Me Like That
TTITLE8=When Opposites Attract
TTITLE9=Too Late
TTITLE10=Cant`t Run From Yourself
TTITLE11=Dear CMT
EXTD=
EXTT0=
EXTT1=
EXTT2=
EXTT3=
EXTT4=
EXTT5=
EXTT6=
EXTT7=
EXTT8=
EXTT9=
EXTT10=
EXTT11=
PLAYORDER=
